<svg xmlns="http://www.w3.org/2000/svg" viewBox="0 0 23.49 62.94"><title>ex</title><g id="Layer_2" data-name="Layer 2"><g id="Layer_3" data-name="Layer 3"><g id="exclamation"><path d="M14,61.54a1.09,1.09,0,0,0,.08-.15,2.4,2.4,0,0,0,.12-.38.19.19,0,0,1,0-.07l9.24-45a2.5,2.5,0,1,0-4.9-1L14.25,35.85V2.5a2.5,2.5,0,0,0-5,0V35.85L5,14.94a2.5,2.5,0,1,0-4.9,1l9.25,45s0,0,0,.06a2,2,0,0,0,.13.39l.07.14c0,.09.09.18.14.27l.1.14.18.21a1.59,1.59,0,0,0,.13.13l.21.17.16.11.23.13.17.07a1.61,1.61,0,0,0,.29.09l.16,0a2.42,2.42,0,0,0,.47,0,2.5,2.5,0,0,0,.47,0l.16,0a1.52,1.52,0,0,0,.28-.09l.17-.07.24-.13.15-.11a1.73,1.73,0,0,0,.21-.17.8.8,0,0,0,.13-.13c.07-.07.12-.14.18-.21l.1-.15A1.57,1.57,0,0,0,14,61.54Z"/></g></g></g></svg>