<svg xmlns="http://www.w3.org/2000/svg" viewBox="0 0 72 72"><path d="M63 47.2c-3.7-2.3-8.1-3-12.3-2.1L28.3 1.4c-0.6-1.2-2.1-1.7-3.4-1.1 -0.5 0.2-0.8 0.6-1.1 1.1L9.4 29.2c-0.6 1.2-0.2 2.7 1.1 3.4 1.2 0.6 2.7 0.2 3.4-1.1L26.1 8l20 39c-4.7 2.7-8.3 7.2-10.8 11H11.1l17.2-32.9c0.6-1.2 0.2-2.7-1.1-3.4s-2.7-0.2-3.4 1.1L4.8 59.3c-0.4 0.8-0.4 1.7 0.1 2.5C5.3 62.5 6.1 63 7 63h25.4c-0.2 0.4-0.4 0.7-0.5 1 -0.3 0.5-0.5 1-0.7 1.4 -0.7 1.2-0.3 2.7 0.8 3.4 1.2 0.7 2.7 0.3 3.4-0.8 0-0.1 0.1-0.2 0.1-0.2 0.3-0.5 0.5-1 0.8-1.5 0.6-1.3 1.4-2.7 2.4-4.5 1.7-2.8 5.1-7.6 9.6-10.3 4.4 8.3 10.2 11.2 14.3 10.3 3-0.6 4.9-3.2 4.9-6.7C67.5 51.8 65.8 48.9 63 47.2zM61.6 56.9c-1.8 0.4-5.4-1.7-8.5-7.1 2.5-0.3 5 0.3 7.1 1.6 1.4 0.8 2.2 2.2 2.3 3.7C62.5 56.1 62.2 56.7 61.6 56.9z"/></svg>