<svg xmlns="http://www.w3.org/2000/svg" viewBox="0 0 72 72"><path d="M55.3 47.1c8.8-5.8 12.2-14.5 12.2-15.6 0-0.3 0-0.5-0.1-0.8 -2.5-6-6.6-11.2-12-14.8l5.5-5.5c1-1 0.9-2.6-0.1-3.5 -1-0.9-2.5-0.9-3.5 0l-6.5 6.5c-3.9-1.7-8.1-2.6-12.3-2.8v-8C38.5 1.1 37.4 0 36 0c-1.4 0-2.5 1.1-2.5 2.5v8.1c-4 0.3-8 1.3-11.7 3L15 6.8c-1.1-0.8-2.7-0.5-3.5 0.6 -0.6 0.9-0.6 2 0 2.9l5.8 5.8c-5.4 3.6-9.8 8.5-12.6 14.4 -0.3 0.6-0.3 1.3 0 2 2.8 5.8 7.1 10.8 12.5 14.4l-5.7 5.8c-1 1-1 2.6 0 3.5 0 0 0 0 0 0 0.5 0.5 1.1 0.7 1.8 0.7 0.7 0 1.3-0.3 1.8-0.7l6.8-6.8c3.7 1.7 7.6 2.7 11.7 3v8.1c0 1.4 1.1 2.5 2.5 2.5 1.4 0 2.5-1.1 2.5-2.5v-8c4.2-0.2 8.4-1.1 12.2-2.8l6.5 6.5c0.5 0.5 1.1 0.7 1.8 0.7 1.4 0 2.5-1.1 2.5-2.5 0-0.7-0.3-1.4-0.8-1.9L55.3 47.1zM33.5 47.3c-10.1-0.9-19-6.9-23.7-15.8 4.8-8.9 13.7-14.9 23.7-15.8V47.3zM38.5 15.5c4 0.2 7.8 1.1 11.4 2.9 0.1 0.1 0.3 0.2 0.5 0.3 5.3 2.8 9.5 7.3 11.9 12.8 -4.2 9.4-13.5 15.6-23.8 15.9V15.5z"/></svg>