<svg xmlns="http://www.w3.org/2000/svg" viewBox="0 0 72 72"><path d="M42.7 55.6c-0.3 0-0.7-0.1-1-0.2 -0.9-0.4-1.5-1.3-1.5-2.3V9.9c0-1.4 1.1-2.5 2.5-2.5 0.7 0 1.3 0.3 1.8 0.7l22.3 21.6c1 1 1 2.6 0.1 3.5 0 0 0 0-0.1 0.1L44.4 54.9C43.9 55.4 43.3 55.6 42.7 55.6zM45.2 15.8v31.4l16.2-15.7L45.2 15.8z"/><path d="M36 24.4c-1.4 0-2.5-1.1-2.5-2.5 0-2.7-0.6-4.6-1.6-5 -1.9-0.9-6.4 1.4-8.8 3.4S14 25.8 9 23.5c-2-0.9-4.5-3.2-4.5-8.7 0-1.4 1.1-2.5 2.5-2.5s2.5 1.1 2.5 2.5c0 2.3 0.5 3.6 1.6 4.1 2.2 1 6.8-0.8 8.8-2.5C22.7 14 29.3 10 34 12.2c3 1.4 4.5 4.6 4.5 9.6C38.5 23.2 37.4 24.4 36 24.4L36 24.4z"/><path d="M36 51.4c-1.4 0-2.5-1.1-2.5-2.5 0-2.7-0.6-4.6-1.6-5 -1.9-0.9-6.4 1.4-8.8 3.4S14 52.9 9 50.5c-2-0.9-4.5-3.2-4.5-8.7 0-1.4 1.1-2.5 2.5-2.5s2.5 1.1 2.5 2.5c0 2.3 0.5 3.6 1.6 4.1 2.2 1 6.8-0.8 8.8-2.5C22.7 41 29.2 37 34 39.2c3 1.4 4.5 4.6 4.5 9.6C38.5 50.3 37.4 51.4 36 51.4L36 51.4z"/><circle cx="51.8" cy="31.5" r="3.5"/></svg>