<svg xmlns="http://www.w3.org/2000/svg" viewBox="0 0 72 72"><path d="M36 55.6H7c-1.4 0-2.5-1.1-2.5-2.5 0-0.4 0.1-0.8 0.3-1.2L19.3 26c0.4-0.8 1.3-1.3 2.2-1.3l0 0c0.9 0 1.7 0.5 2.2 1.3l13.8 24.6H65c1.4 0 2.5 1.1 2.5 2.5s-1.1 2.5-2.5 2.5H36L36 55.6zM11.3 50.6h20.4L21.5 32.3 11.3 50.6z"/><path d="M50.4 38.3L50.4 38.3c-0.9 0-1.7-0.5-2.2-1.3L34.5 12.4H7c-1.4 0-2.5-1.1-2.5-2.5S5.6 7.4 7 7.4h58c1.4 0 2.5 1.1 2.5 2.5 0 0.4-0.1 0.8-0.3 1.2L52.6 37C52.2 37.8 51.3 38.3 50.4 38.3zM40.3 12.4l10.2 18.3 10.3-18.3C60.8 12.4 40.3 12.4 40.3 12.4z"/><circle cx="36" cy="31.5" r="3.5"/></svg>