<?xml version="1.0" encoding="utf-8"?>
<!-- Generator: Adobe Illustrator 23.1.0, SVG Export Plug-In . SVG Version: 6.00 Build 0)  -->
<svg version="1.1" id="Layer_1" xmlns="http://www.w3.org/2000/svg" xmlns:xlink="http://www.w3.org/1999/xlink" x="0px" y="0px"
	 viewBox="0 0 72 72" style="enable-background:new 0 0 72 72;" xml:space="preserve">
<path d="M54,21.7H18c-1.4,0-2.5-1.1-2.5-2.5c0-0.7,0.3-1.4,0.8-1.8l18-16.7c1-0.9,2.4-0.9,3.4,0l18,16.7c1,0.9,1.1,2.5,0.1,3.5
	C55.3,21.4,54.7,21.7,54,21.7z M24.3,16.7h23.2L36,5.9L24.3,16.7z"/>
<path d="M36,62.9c-15.1,0-20.5-8.2-20.5-15.2c0-6.7,5.5-13.5,17.3-18H10.2c-1.4,0-2.5-1.1-2.5-2.5s1.1-2.5,2.5-2.5h51.5
	c1.4,0,2.5,1.1,2.5,2.5c0,1.4-1.1,2.5-2.5,2.5c-30.3,1-41.3,11.3-41.3,18c0,4.9,4.1,10.2,15.5,10.2c12.3,0,15.5-6.4,15.5-9.8
	c0-1.9-1.1-3.7-2.8-4.6c-3.5-2.2-8.5-2.2-10.5-1.3c-1.3,0.6-2.7,0-3.3-1.2c-0.6-1.3,0-2.7,1.2-3.3c4.1-1.9,11-1.2,15.3,1.6
	c3.1,1.8,5.1,5.2,5.1,8.8C56.5,55.3,50,62.9,36,62.9z"/>
<circle cx="36" cy="52" r="3.5"/>
</svg>
