<?xml version="1.0" encoding="utf-8"?>
<!-- Generator: Adobe Illustrator 23.1.0, SVG Export Plug-In . SVG Version: 6.00 Build 0)  -->
<svg version="1.1" id="Layer_1" xmlns="http://www.w3.org/2000/svg" xmlns:xlink="http://www.w3.org/1999/xlink" x="0px" y="0px"
	 viewBox="0 0 72 72" style="enable-background:new 0 0 72 72;" xml:space="preserve">
<path d="M10.3,62.9c-1.4,0-2.5-1.1-2.5-2.5c0,0,0,0,0,0V2.5C7.8,1.1,8.9,0,10.3,0c0.9,0,1.8,0.5,2.2,1.4L32.4,40
	c0.6,1.2,0.1,2.7-1.1,3.4c-0.3,0.2-0.7,0.3-1.1,0.3H12.8v16.8C12.8,61.8,11.6,62.9,10.3,62.9z M12.8,38.6h13.3L12.8,12.8V38.6z"/>
<path d="M41.8,62.9c-1.4,0-2.5-1.1-2.5-2.5c0,0,0,0,0,0V2.5c0-1.4,1.1-2.5,2.5-2.5c0.9,0,1.8,0.5,2.2,1.4L64,40
	c0.6,1.2,0.1,2.7-1.1,3.4c-0.3,0.2-0.7,0.3-1.1,0.3H44.3v16.8C44.3,61.8,43.2,62.9,41.8,62.9C41.8,62.9,41.8,62.9,41.8,62.9z
	 M44.3,38.6h13.4L44.3,12.8L44.3,38.6z"/>
<circle cx="20.2" cy="51.9" r="3.5"/>
<circle cx="51.8" cy="51.9" r="3.5"/>
</svg>
