<?xml version="1.0" encoding="utf-8"?>
<!-- Generator: Adobe Illustrator 23.1.0, SVG Export Plug-In . SVG Version: 6.00 Build 0)  -->
<svg version="1.1" id="Layer_1" xmlns="http://www.w3.org/2000/svg" xmlns:xlink="http://www.w3.org/1999/xlink" x="0px" y="0px"
	 viewBox="0 0 72 72" style="enable-background:new 0 0 72 72;" xml:space="preserve">
<path d="M32.4,61L32.4,61c-0.9,0-1.7-0.4-2.1-1.2L4.8,16.6c-0.7-1.2-0.4-2.8,0.8-3.5c0.4-0.2,0.9-0.3,1.3-0.3h35.2
	c1.4,0,2.5,1.1,2.5,2.5s-1.1,2.5-2.5,2.5H11.3l21.1,35.8l23.5-39.5c0.7-1.2,2.2-1.6,3.4-0.9l6.9,4c0.6,0.3,1,0.9,1.2,1.5
	c0.2,0.6,0.1,1.3-0.3,1.9L55.9,39.5c-0.7,1.2-2.2,1.6-3.4,0.9s-1.6-2.2-0.9-3.4c0,0,0,0,0-0.1l9.9-16.7l-2.6-1.5L34.6,59.8
	C34.1,60.5,33.3,61,32.4,61z"/>
<circle cx="32.5" cy="31.5" r="3.5"/>
</svg>
