<?xml version="1.0" encoding="utf-8"?>
<!-- Generator: Adobe Illustrator 23.1.0, SVG Export Plug-In . SVG Version: 6.00 Build 0)  -->
<svg version="1.1" id="Layer_1" xmlns="http://www.w3.org/2000/svg" xmlns:xlink="http://www.w3.org/1999/xlink" x="0px" y="0px"
	 viewBox="0 0 72 72" style="enable-background:new 0 0 72 72;" xml:space="preserve">
<path d="M65,58h-7.9L41.5,27l6.7-13c0.6-1.2,0.2-2.7-1.1-3.4c-0.4-0.2-0.7-0.3-1.2-0.3H33l-4.6-9c-0.6-1.2-2.1-1.7-3.4-1.1
	c-0.5,0.2-0.9,0.6-1.1,1.1l-11.5,22c-0.6,1.2-0.1,2.7,1.2,3.3c1.2,0.6,2.6,0.1,3.2-1L26.1,8l3.1,6c0.4,0.8,1.3,1.4,2.2,1.4h10.5
	l-5.4,10.4c-0.4,0.7-0.4,1.6,0,2.3L51.5,58H11.1l18.3-35.1c0.6-1.2,0.2-2.7-1.1-3.4s-2.7-0.2-3.4,1.1l0,0L4.8,59.3
	c-0.7,1.2-0.2,2.7,1,3.4C6.2,62.9,6.6,63,7,63h58c1.4,0,2.5-1.1,2.5-2.5S66.4,58,65,58L65,58z"/>
<circle cx="31.5" cy="40.7" r="3.5"/>
</svg>
