<svg xmlns="http://www.w3.org/2000/svg" viewBox="0 0 72 72"><path d="M65 62.9H24.4c-1.4 0-2.5-1.1-2.5-2.5 0-0.7 0.3-1.3 0.8-1.8l39.8-37.9V5H7C5.7 5 4.5 3.9 4.5 2.5S5.7 0 7 0H65c1.4 0 2.5 1.1 2.5 2.5 0 0 0 0 0 0v19.3l0 0v38.6C67.5 61.8 66.4 62.9 65 62.9 65 62.9 65 62.9 65 62.9zM30.7 57.9h31.8V27.6L30.7 57.9z"/><path d="M10.3 53.3c-0.3 0-0.7-0.1-1-0.2 -0.9-0.4-1.5-1.3-1.5-2.3V19.9c0-1.4 1.1-2.5 2.5-2.5l0 0h32.4c1.4 0 2.5 1.1 2.5 2.5 0 0.7-0.3 1.3-0.8 1.8L12 52.6C11.5 53 10.9 53.3 10.3 53.3zM12.8 22.4v22.6l23.7-22.6L12.8 22.4z"/></svg>