<svg xmlns="http://www.w3.org/2000/svg" viewBox="0 0 72 72"><path d="M38.6 63c-16.3 0-18.9-8.5-19.2-12.2 -0.8-8.8 7.1-20 20.1-28.1C33.4 15.5 26.2 9.4 18 4.6c-1.3-0.5-1.9-2-1.4-3.2 0.5-1.3 2-1.9 3.2-1.4 0.2 0.1 0.4 0.2 0.6 0.3 8.9 5.2 16.9 11.9 23.5 19.8 6.5-3.4 13.4-5.8 20.6-7.1 1.4-0.2 2.7 0.7 2.9 2 0.2 1.3-0.7 2.6-2 2.9 -6.5 1.2-12.7 3.2-18.6 6.2 6.8 9.9 12 22.6 7.7 31.2C52.7 58.8 48.5 63 38.6 63zM42.5 26.6c-12 7.4-18.7 17.3-18.1 23.7C25 57 33.5 58 38.6 58c5.9 0 9.8-1.7 11.4-5C52.8 47.5 49.8 37 42.5 26.6z"/><path d="M7 39c-0.4 0-0.8-0.1-1.1-0.3 -0.8-0.4-1.4-1.3-1.4-2.2V7.7c0-0.9 0.5-1.8 1.4-2.2C6.7 5 7.8 5.1 8.5 5.7l20.2 14.4c1.1 0.8 1.4 2.4 0.6 3.5 -0.2 0.2-0.4 0.4-0.6 0.6L8.5 38.5C8.1 38.9 7.6 39 7 39zM9.5 12.6v19.1l13.4-9.5L9.5 12.6z"/></svg>