<svg xmlns="http://www.w3.org/2000/svg" viewBox="0 0 36 72"><path d="M20.2 61.5c0 0 0.1-0.1 0.1-0.2 0.1-0.1 0.1-0.3 0.1-0.4 0 0 0 0 0-0.1l9.2-45c0.3-1.4-0.6-2.7-2-2.9 -1.4-0.3-2.7 0.6-2.9 1.9l0 0 -4.3 20.9V2.5C20.5 1.1 19.4 0 18 0c-1.4 0-2.5 1.1-2.5 2.5v33.3l-4.3-20.9C11 13.6 9.6 12.7 8.3 13s-2.2 1.6-1.9 2.9l9.3 45c0 0 0 0 0 0.1 0 0.1 0.1 0.3 0.1 0.4l0.1 0.1c0 0.1 0.1 0.2 0.1 0.3l0.1 0.1 0.2 0.2c0 0 0.1 0.1 0.1 0.1l0.2 0.2 0.2 0.1 0.2 0.1 0.2 0.1c0.1 0 0.2 0.1 0.3 0.1h0.2c0.2 0 0.3 0 0.5 0 0.2 0 0.3 0 0.5 0h0.2c0.1 0 0.2-0.1 0.3-0.1l0.2-0.1 0.2-0.1 0.1-0.1c0.1-0.1 0.1-0.1 0.2-0.2 0 0 0.1-0.1 0.1-0.1 0.1-0.1 0.1-0.1 0.2-0.2l0.1-0.2C20.2 61.7 20.2 61.6 20.2 61.5z"/></svg>