<svg xmlns="http://www.w3.org/2000/svg" viewBox="0 0 72 72"><path d="M45.7 53.3c-1.4 0-2.5-1.1-2.5-2.5V12.1c0-1.4 1.1-2.5 2.5-2.5s2.5 1.1 2.5 2.5v38.6C48.2 52.2 47 53.3 45.7 53.3z"/><path d="M65 57.9H11.2l22.3-41.6v34.5c0 1.4 1.1 2.5 2.5 2.5 1.4 0 2.5-1.1 2.5-2.5V7l1.8-3.3c0.4-0.8 0.4-1.7 0-2.5C39.8 0.4 39 0 38.1 0H16.7c-1.4 0-2.5 1.1-2.5 2.5S15.3 5 16.7 5h17.2L4.8 59.2c-0.7 1.2-0.2 2.7 1 3.4 0.4 0.2 0.8 0.3 1.2 0.3H65c1.4 0 2.5-1.1 2.5-2.5S66.3 57.9 65 57.9z"/><circle cx="21.6" cy="51.9" r="3.5"/></svg>