<?xml version="1.0" encoding="utf-8"?>
<!-- Generator: Adobe Illustrator 23.1.0, SVG Export Plug-In . SVG Version: 6.00 Build 0)  -->
<svg version="1.1" id="Layer_1" xmlns="http://www.w3.org/2000/svg" xmlns:xlink="http://www.w3.org/1999/xlink" x="0px" y="0px"
	 viewBox="0 0 72 72" style="enable-background:new 0 0 72 72;" xml:space="preserve">
<path d="M63.1,19.8c-1.1-0.8-2.7-0.5-3.5,0.7c0,0,0,0,0,0L38.5,52.2V30.7c8.4-1.4,14.1-9.3,12.7-17.7S41.9-1.2,33.5,0.2
	S19.4,9.5,20.8,17.9c1.1,6.5,6.2,11.7,12.7,12.7v21.5L12.3,20.4c-0.8-1.1-2.3-1.5-3.5-0.7s-1.5,2.3-0.7,3.5c0,0,0,0,0,0l25.7,38.6
	c0.5,0.7,1.2,1.2,2.1,1.2c0.8,0,1.6-0.4,2.1-1.1l25.8-38.7C64.6,22.1,64.3,20.5,63.1,19.8z M25.5,15.4C25.5,9.7,30.2,5,36,5
	s10.5,4.7,10.5,10.4S41.8,25.9,36,25.9c0,0,0,0,0,0C30.2,25.9,25.6,21.2,25.5,15.4z"/>
<circle cx="36" cy="15.4" r="3.5"/>
</svg>
