<svg xmlns="http://www.w3.org/2000/svg" viewBox="0 0 62.95 48.2"><title>10</title><g id="Layer_2" data-name="Layer 2"><g id="expanded"><g id="j"><path d="M38.13,48.2a2.6,2.6,0,0,1-1-.2,2.5,2.5,0,0,1-1.52-2.3V2.5A2.5,2.5,0,0,1,39.87.7L62.19,22.3a2.51,2.51,0,0,1,0,3.6L39.87,47.5A2.52,2.52,0,0,1,38.13,48.2Zm2.5-39.8V39.8L56.85,24.1Z"/><path d="M31.46,17a2.5,2.5,0,0,1-2.5-2.5c0-2.74-.58-4.57-1.59-5-1.92-.88-6.4,1.4-8.76,3.43S9.52,18.4,4.5,16.1c-2-.94-4.5-3.21-4.5-8.67a2.5,2.5,0,0,1,5,0c0,2.25.54,3.64,1.59,4.13,2.16,1,6.81-.84,8.76-2.52,2.8-2.4,9.35-6.36,14.11-4.17,3,1.37,4.5,4.6,4.5,9.58A2.5,2.5,0,0,1,31.46,17Z"/><path d="M31.46,44a2.5,2.5,0,0,1-2.5-2.5c0-2.74-.58-4.57-1.59-5-1.92-.88-6.4,1.4-8.76,3.43S9.52,45.44,4.5,43.13c-2-.94-4.5-3.21-4.5-8.67a2.5,2.5,0,0,1,5,0c0,2.25.54,3.64,1.59,4.13,2.16,1,6.81-.84,8.76-2.52,2.8-2.4,9.34-6.36,14.11-4.17,3,1.37,4.5,4.6,4.5,9.58A2.5,2.5,0,0,1,31.46,44Z"/></g></g></g></svg>