<svg xmlns="http://www.w3.org/2000/svg" viewBox="0 0 62.98 62.96"><title>20</title><g id="Layer_2" data-name="Layer 2"><g id="expanded"><g id="t"><path d="M34.08,63c-16.32,0-18.85-8.53-19.18-12.2C14.12,42,22,30.79,35,22.65a84.09,84.09,0,0,0-21.51-18A2.5,2.5,0,1,1,15.87.3a86.94,86.94,0,0,1,23.5,19.82A71.58,71.58,0,0,1,60,13a2.5,2.5,0,0,1,.89,4.92,67.56,67.56,0,0,0-18.6,6.2C49.09,34,54.27,46.75,50,55.29,48.19,58.79,44,63,34.08,63ZM38,26.58C26,34,19.31,43.89,19.88,50.32,20.48,57,29,58,34.08,58,40,58,43.84,56.3,45.49,53,48.27,47.52,45.25,37.05,38,26.58Z"/><path d="M2.5,39a2.43,2.43,0,0,1-1.14-.28A2.48,2.48,0,0,1,0,36.51V7.71A2.47,2.47,0,0,1,1.36,5.49,2.49,2.49,0,0,1,4,5.67l20.18,14.4a2.5,2.5,0,0,1,0,4.07L4,38.54A2.48,2.48,0,0,1,2.5,39ZM5,12.56V31.65l13.38-9.54Z"/></g></g></g></svg>