<svg xmlns="http://www.w3.org/2000/svg" viewBox="0 0 62.92 48.2"><title>25</title><g id="Layer_2" data-name="Layer 2"><g id="expanded"><g id="y"><path d="M62.46,15.71a2.5,2.5,0,0,0-2-1.05H30.29C29.21,6.38,22.88,0,15.23,0,6.83,0,0,7.7,0,17.16S6.83,34.32,15.23,34.32c7.65,0,14-6.38,15.06-14.66h9L48.4,46.5a2.5,2.5,0,0,0,4.74,0L62.79,18A2.47,2.47,0,0,0,62.46,15.71ZM15.23,29.32C9.59,29.32,5,23.87,5,17.16S9.59,5,15.23,5s10.24,5.46,10.24,12.16S20.88,29.32,15.23,29.32ZM50.77,37.9,44.6,19.66H56.94Z"/></g></g></g></svg>