<svg xmlns="http://www.w3.org/2000/svg" viewBox="0 0 62.96 62.96"><title>6</title><g id="Layer_2" data-name="Layer 2"><g id="expanded"><g id="f"><path d="M28.9,63C19,63,14.8,58.79,13,55.29,8.72,46.75,13.9,34,20.65,24.12a67.6,67.6,0,0,0-18.59-6.2A2.5,2.5,0,0,1,2.94,13a71.47,71.47,0,0,1,20.67,7.12A86.75,86.75,0,0,1,47.12.3a2.54,2.54,0,0,1,2-.16,2.51,2.51,0,0,1,1.48,1.39l12.15,29a2.5,2.5,0,0,1-3.63,3.09L32.9,17.32A68.2,68.2,0,0,0,28,22.65C41,30.79,48.86,42,48.08,50.77,47.75,54.43,45.23,63,28.9,63ZM25,26.58C17.74,37.05,14.71,47.52,17.49,53,19.14,56.3,23,58,28.9,58c5.05,0,13.61-1,14.2-7.64C43.68,43.89,37,34,25,26.58Zm11.7-12.77,18.4,11.42-8-19.1A89.67,89.67,0,0,0,36.73,13.81Z"/></g></g></g></svg>