<svg xmlns="http://www.w3.org/2000/svg" viewBox="0 0 62.96 62.92"><title>9</title><g id="Layer_2" data-name="Layer 2"><g id="expanded"><g id="i"><path d="M63,31.45a2.51,2.51,0,0,0-.14-.81C62.76,30.44,56,11.51,34,10.53v-8a2.5,2.5,0,1,0-5,0v8.12C8.17,12.28.53,29.7.2,30.48a2.45,2.45,0,0,0,0,1.95c.33.78,8,18.19,28.78,19.86v8.13a2.5,2.5,0,1,0,5,0v-8C55.56,51.42,63,33.11,63,31.45Zm-57.68,0A30.22,30.22,0,0,1,29,15.63V47.28A29.84,29.84,0,0,1,5.28,31.46ZM34,47.38V15.53A26.74,26.74,0,0,1,57.77,31.45,27,27,0,0,1,34,47.38Z"/></g></g></g></svg>