<svg xmlns="http://www.w3.org/2000/svg" viewBox="0 0 62.96 62.92"><title>9</title><g id="Layer_2" data-name="Layer 2"><g id="expanded"><g id="i"><path d="M50.78,47.09C59.59,41.25,63,32.57,63,31.45a2.51,2.51,0,0,0-.14-.81,33,33,0,0,0-12-14.8l5.52-5.52a2.5,2.5,0,0,0-3.53-3.54l-6.54,6.54A33.58,33.58,0,0,0,34,10.53v-8a2.5,2.5,0,1,0-5,0v8.12a35,35,0,0,0-11.7,3l-6.8-6.8A2.5,2.5,0,0,0,7,10.32l5.77,5.77A35.53,35.53,0,0,0,.2,30.48a2.45,2.45,0,0,0,0,1.95A35.51,35.51,0,0,0,12.73,46.82L7,52.6a2.5,2.5,0,0,0,0,3.54,2.45,2.45,0,0,0,1.76.73,2.49,2.49,0,0,0,1.77-.73l6.81-6.81a35,35,0,0,0,11.69,3v8.13a2.5,2.5,0,1,0,5,0v-8a33.52,33.52,0,0,0,12.24-2.79l6.55,6.55a2.45,2.45,0,0,0,1.76.73A2.5,2.5,0,0,0,56.3,52.6ZM29,47.28A29.84,29.84,0,0,1,5.28,31.46,30.22,30.22,0,0,1,29,15.63Zm5-31.75a28.49,28.49,0,0,1,11.4,2.87,2.55,2.55,0,0,0,.46.25,27,27,0,0,1,11.93,12.8A27,27,0,0,1,34,47.38Z"/></g></g></g></svg>