<?xml version="1.0" encoding="utf-8"?>
<!-- Generator: Adobe Illustrator 23.0.3, SVG Export Plug-In . SVG Version: 6.00 Build 0)  -->
<svg version="1.1" id="Layer_1" xmlns="http://www.w3.org/2000/svg" xmlns:xlink="http://www.w3.org/1999/xlink" x="0px" y="0px"
	 viewBox="0 0 648 216" style="enable-background:new 0 0 648 216;" xml:space="preserve">
<style type="text/css">
	.st0{fill:#FFFFFF;}
	.st1{fill:#FCF9CE;}
	.st2{fill:#653614;}
	.st3{fill:#48C2C5;}
	.st4{fill:#1C3664;}
	.st5{fill:#991B1E;}
	.st6{fill:#310E31;}
</style>
<rect class="st0" width="648" height="216"/>
<g id="circle1">
	<circle class="st1" cx="114" cy="108" r="77"/>
	<path class="st2" d="M114,36c39.8,0,72,32.2,72,72s-32.2,72-72,72s-72-32.2-72-72S74.2,36,114,36 M114,26c-45.2,0-82,36.8-82,82
		s36.8,82,82,82s82-36.8,82-82S159.2,26,114,26L114,26z"/>
</g>
<g id="circle2">
	<circle class="st3" cx="324" cy="108" r="77"/>
	<path class="st4" d="M324,36c39.8,0,72,32.2,72,72s-32.2,72-72,72s-72-32.2-72-72S284.2,36,324,36 M324,26c-45.2,0-82,36.8-82,82
		s36.8,82,82,82s82-36.8,82-82S369.2,26,324,26L324,26z"/>
</g>
<g id="circle3_22_">
	<circle class="st5" cx="534" cy="108" r="77"/>
	<path class="st6" d="M534,36c39.8,0,72,32.2,72,72s-32.2,72-72,72s-72-32.2-72-72S494.2,36,534,36 M534,26c-45.2,0-82,36.8-82,82
		s36.8,82,82,82s82-36.8,82-82S579.2,26,534,26L534,26z"/>
</g>
</svg>
