<svg xmlns="http://www.w3.org/2000/svg" viewBox="0 0 90 90"><defs><style>.cls-1{fill:#ccc;}</style></defs><circle class="cls-1" cx="45" cy="45" r="45"/><path d="M76.2 46.1a2.5 2.5 0 1 0-4.5-2.3 0.1 0.1 0 0 1-0.1 0.1c-5.1 11.3-14.4 17.2-26.7 17.2s-21.6-5.9-26.8-17.1a2.4 2.4 0 0 0-3.3-1.2 2.5 2.5 0 0 0-1.2 3.3 35.1 35.1 0 0 0 12.1 14.6l-5.6 5.5a2.5 2.5 0 0 0 0 3.5 2.6 2.6 0 0 0 3.5 0l6.6-6.5a34.6 34.6 0 0 0 12.2 2.9v8a2.5 2.5 0 0 0 5 0v-8a36.8 36.8 0 0 0 12.2-2.8l6.6 6.6a2.4 2.4 0 0 0 3.5-0.1 2.6 2.6 0 0 0 0-3.5l-5.6-5.6A34.3 34.3 0 0 0 76.2 46.1Z"/></svg>