<svg xmlns="http://www.w3.org/2000/svg" viewBox="0 0 90 90">
<circle style="fill:#ccc" cx="45" cy="45" r="45"/><ellipse style="fill:#fff" cx="45" cy="44.9" rx="29.1" ry="18.6"/><path d="M45 63.6A73.1 73.1 0 0 1 42.5 45 73.1 73.1 0 0 1 45 26.4 73.1 73.1 0 0 1 47.5 45 73.1 73.1 0 0 1 45 63.6Z"/><path d="M76.3 46l0.5-1-0.5-1.1A34.5 34.5 0 0 0 64.2 29.3l5.4-5.4a2.4 2.4 0 0 0 0-3.5 2.5 2.5 0 0 0-3.5 0l-6.4 6.4a36.9 36.9 0 0 0-12.2-2.9V16.1a2.5 2.5 0 0 0-5 0v7.8a34.6 34.6 0 0 0-12.2 2.9l-6.4-6.4a2.4 2.4 0 0 0-3.5 0 2.5 2.5 0 0 0 0 3.5l5.4 5.4A35.1 35.1 0 0 0 13.7 43.9L13.2 45l0.5 1.1A35.4 35.4 0 0 0 25.8 60.8l-5.5 5.5a2.5 2.5 0 0 0 3.5 3.5l6.5-6.5a33.4 33.4 0 0 0 12.1 2.8v8a2.5 2.5 0 0 0 5 0v-8a35.6 35.6 0 0 0 12.1-2.8L66 69.8a2.4 2.4 0 0 0 3.5 0 2.5 2.5 0 0 0 0-3.5L64 60.8A35.2 35.2 0 0 0 76.3 46ZM45 61c-11.9 0-21-5.6-26.3-16.1C24 34.4 33.1 28.8 45 28.8s21 5.6 26.3 16.1C66 55.5 56.9 61 45 61Z"/></svg>