<svg xmlns="http://www.w3.org/2000/svg" viewBox="0 0 480 300"><g><path d="M57 160H47c-0.2 22.9-2.6 37.5-18.5 37.5-18.1 0-18.5-19-18.5-47.5s0.4-47.5 18.5-47.5c15.3 0 18.1 13.6 18.5 35h-33.2v5L57 142.5C56.8 115.2 54.7 97.5 28.5 97.5 0 97.5 0 118.5 0 150s0 52.5 28.5 52.5c25.4 0 28.2-16.6 28.5-42.5"/></g><g><polygon points="122 0 122 188.8 82 108.8 82 100 72 100 72 200 82 200 82 120 122 200 132 200 132 0 122 0"/></g><g><path d="M181.3 126.9h-5.8L209 100h-8L160 132.8V0H150V200h10V139.2l9.2-7.3h12.1c18.3 0 18.7 19 18.7 47.5l0 20.6H210V179.4C210 147.9 210 126.9 181.3 126.9Z"/></g><g><path d="M285 121.3c0-20.2-19.8-21.2-50-21.3V100H225V200h10V105c24.2 0 40 0.3 40 16.3 0 3.9-1 6.8-2.7 9.1-4-2.3-9.2-3.5-16-3.5L240 126.9v5l16.3 0a16.2 16.2 0 0 1 9.9 2.8c-6.1 2.4-15.1 2.8-26.1 2.8v5c12.4-0.1 22.7-0.6 30.4-2.8 4.4 8.1 4.6 22.1 4.6 39.7v20.6h10V179.4c0-19.2 0-34.5-6.5-43.5C282.7 132.7 285 128.1 285 121.3Z"/></g><g><path d="M347.5 100V150h0c0 28.5-0.5 47.5-18.8 47.5S310 178.5 310 150V100H300V150c0 31.5 0 52.5 28.8 52.5 8.5 0 14.5-1.9 18.8-5.3V300h10V100Z"/></g><g><path d="M403.8 97.5c-8.5 0-14.5 1.9-18.8 5.3V100h-10v200h10V197.2c4.2 3.4 10.2 5.3 18.8 5.3 28.8 0 28.8-21 28.8-52.5S432.5 97.5 403.8 97.5Zm0 100c-17.8 0-18.7-18.1-18.8-45.4v-4.2c0-27.4 0.9-45.5 18.8-45.5 18.3 0 18.8 19 18.8 47.5S422.1 197.5 403.8 197.5Z"/></g><g><path d="M480 102.5v-5h-20v-17.2h-10v17.2H445v5h5v47.5c0 26.6 0 33.7 3.7 41 4.5 9 13.2 9 26.4 9l0-5c-12.7 0-15.8-1.3-17.4-4.5-2.6-5.2-2.6-17.1-2.6-40.5v-47.5Z"/></g></svg>