<?xml version="1.0" encoding="utf-8"?>
<!-- Generator: Adobe Illustrator 24.0.0, SVG Export Plug-In . SVG Version: 6.00 Build 0)  -->
<svg version="1.1" id="Layer_1" xmlns="http://www.w3.org/2000/svg" xmlns:xlink="http://www.w3.org/1999/xlink" x="0px" y="0px"
	 viewBox="0 0 90 90" style="enable-background:new 0 0 90 90;" xml:space="preserve">
<style type="text/css">
	.st0{fill:#FFFFFF;}
</style>
<circle id="ellipse_fill" class="st0" cx="45" cy="45" r="45"/>
<path id="lower" d="M76.3,46c0.6-1.2,0.1-2.7-1.1-3.4c-1.2-0.6-2.7-0.1-3.4,1.1c0,0,0,0.1-0.1,0.1C66.6,55.1,57.3,61,45,61
	s-21.6-5.9-26.8-17.1c-0.6-1.3-2.1-1.8-3.3-1.2s-1.8,2.1-1.2,3.3c2.6,5.9,6.8,10.9,12.1,14.6l-5.6,5.5c-1,1-0.9,2.6,0,3.5
	c1,0.9,2.5,0.9,3.5,0l6.6-6.5c3.9,1.7,8,2.7,12.2,2.9v8c0,1.4,1.1,2.5,2.5,2.5s2.5-1.1,2.5-2.5v-8c4.2-0.2,8.3-1.2,12.2-2.8l6.6,6.6
	c1,1,2.6,0.9,3.5-0.1c0.9-1,0.9-2.5,0-3.5l-5.6-5.6C69.6,56.9,73.7,51.9,76.3,46z"/>
</svg>
