<?xml version="1.0" encoding="utf-8"?>
<!-- Generator: Adobe Illustrator 24.0.0, SVG Export Plug-In . SVG Version: 6.00 Build 0)  -->
<svg version="1.1" id="Layer_1" xmlns="http://www.w3.org/2000/svg" xmlns:xlink="http://www.w3.org/1999/xlink" x="0px" y="0px"
	 viewBox="0 0 90 90" style="enable-background:new 0 0 90 90;" xml:space="preserve">
<style type="text/css">
	.st0{fill:#FFFFFF;}
</style>
<path class="st0" d="M45,0C20.1,0,0,20.1,0,45s20.1,45,45,45s45-20.1,45-45S69.9,0,45,0z M45,63.5c-13.8,0-23.6-6.8-29.1-18.6
	c5.5,7.3,15.3,11.5,29.1,11.5s23.6-4.3,29.1-11.5C68.6,56.7,58.8,63.5,45,63.5z"/>
<path id="lower" d="M76.3,46c0.6-1.2,0.1-2.7-1.1-3.4c-1.2-0.6-2.7-0.1-3.4,1.1c0,0,0,0.1-0.1,0.1C66.6,55.1,57.3,61,45,61
	s-21.6-5.9-26.8-17.1c-0.6-1.3-2.1-1.8-3.3-1.2s-1.8,2.1-1.2,3.3c2.6,5.9,6.8,10.9,12.1,14.6l-5.6,5.5c-1,1-0.9,2.6,0,3.5
	c1,0.9,2.5,0.9,3.5,0l6.6-6.5c3.9,1.7,8,2.7,12.2,2.9v8c0,1.4,1.1,2.5,2.5,2.5s2.5-1.1,2.5-2.5v-8c4.2-0.2,8.3-1.2,12.2-2.8l6.6,6.6
	c1,1,2.6,0.9,3.5-0.1c0.9-1,0.9-2.5,0-3.5l-5.6-5.6C69.6,56.9,73.7,51.9,76.3,46z"/>
<path id="upper" d="M75.6,42.9c-1.1-0.8-2.7-0.6-3.5,0.5C66.9,50.3,57.5,54,45,54s-21.9-3.7-27.1-10.6c-0.8-1.1-2.4-1.3-3.5-0.5
	s-1.3,2.4-0.5,3.5c2.8,3.7,6.6,6.7,10.8,8.6c-1.7,1.2-3.6,2.1-5.6,2.8c-1.3,0.4-2,1.8-1.6,3.1s1.8,2,3.1,1.6l0,0
	c3.5-1.3,6.8-3.2,9.7-5.5c4,1.1,8.1,1.7,12.3,1.8l0.5,8c0.1,1.3,1.2,2.3,2.5,2.3h0.2c1.4-0.1,2.4-1.3,2.3-2.6l-0.5-7.7
	c4.1-0.1,8.1-0.7,12-1.8c1.9,1.5,6,4.4,9.7,5.5c0.2,0.1,0.5,0.1,0.7,0.1c1.4,0,2.5-1.1,2.5-2.5c0-1.1-0.7-2.1-1.8-2.4
	c-2-0.7-3.8-1.6-5.5-2.8c4.2-1.9,8-4.9,10.8-8.6C76.9,45.3,76.7,43.8,75.6,42.9z"/>
</svg>
