<?xml version="1.0" encoding="utf-8"?>
<!-- Generator: Adobe Illustrator 24.0.0, SVG Export Plug-In . SVG Version: 6.00 Build 0)  -->
<svg version="1.1" id="Layer_1" xmlns="http://www.w3.org/2000/svg" xmlns:xlink="http://www.w3.org/1999/xlink" x="0px" y="0px"
	 viewBox="0 0 90 90" style="enable-background:new 0 0 90 90;" xml:space="preserve">
<style type="text/css">
	.st0{fill:#FFFFFF;}
</style>
<path class="st0" d="M45,0C20.1,0,0,20.1,0,45s20.1,45,45,45s45-20.1,45-45S69.9,0,45,0z M45,63.5c-13.8,0-23.6-6.8-29.1-18.6
	c5.5-7.3,15.3-11.5,29.1-11.5s23.6,4.3,29.1,11.5C68.6,56.7,58.8,63.5,45,63.5z"/>
<path d="M76.3,46l0.7-1.4l-0.9-1.2c-2.8-3.7-6.5-6.6-10.7-8.5c2.6-2.3,4.7-5.1,6-8.3c0.5-1.3-0.1-2.7-1.3-3.3s-2.7,0.1-3.3,1.3
	c0,0,0,0.1,0,0.1c-1.4,3.3-3.8,6.1-6.8,8.1c-4-1.1-8.1-1.7-12.3-1.8l-0.3-10.2c0-1.3-1.1-2.4-2.4-2.4s-2.4,1.1-2.4,2.4L42.3,31
	c-4.1,0.1-8.3,0.8-12.3,1.9c-3-2.1-5.4-4.9-6.9-8.3c-0.6-1.2-2.1-1.8-3.3-1.1c-1.2,0.6-1.8,2.1-1.1,3.3c1.4,3,3.5,5.8,5.9,8.1
	c-4.2,1.9-7.9,4.9-10.7,8.5L13,44.6l0.7,1.4c2.6,5.9,6.8,10.9,12.1,14.6l-5.6,5.5c-1,1-0.9,2.6,0,3.5c1,0.9,2.5,0.9,3.5,0l6.6-6.5
	c3.9,1.7,8,2.7,12.2,2.9v8c0,1.4,1.1,2.5,2.5,2.5s2.5-1.1,2.5-2.5v-8c4.2-0.2,8.3-1.2,12.2-2.8l6.6,6.6c1,1,2.6,0.9,3.5-0.1
	c0.9-1,0.9-2.5,0-3.5l-5.6-5.6C69.6,56.9,73.7,51.9,76.3,46z M45,61c-11.8,0-20.8-5.4-26.1-15.7c5.3-6.1,14.3-9.4,26.1-9.4
	s20.8,3.2,26.1,9.4C65.8,55.6,56.8,61,45,61z"/>
</svg>
