<?xml version="1.0" encoding="utf-8"?>
<!-- Generator: Adobe Illustrator 24.0.1, SVG Export Plug-In . SVG Version: 6.00 Build 0)  -->
<svg version="1.1" id="Layer_1" xmlns="http://www.w3.org/2000/svg" xmlns:xlink="http://www.w3.org/1999/xlink" x="0px" y="0px"
	 viewBox="0 0 90 90" style="enable-background:new 0 0 90 90;" xml:space="preserve">
<style type="text/css">
	.st0{fill:#FFFFFF;}
</style>
<path class="st0" d="M45,0C20.1,0,0,20.1,0,45s20.1,45,45,45s45-20.1,45-45S69.9,0,45,0z M45,63.5c-13.8,0-23.6-6.8-29.1-18.6
	C21.4,33.2,31.2,26.3,45,26.3s23.6,6.9,29.1,18.6C68.6,56.7,58.8,63.5,45,63.5z"/>
<path id="center" d="M45,63.6c-1.6-6.1-2.5-12.3-2.5-18.6s0.9-12.5,2.5-18.6c1.6,6.1,2.5,12.3,2.5,18.6S46.6,57.5,45,63.6z"/>
<path d="M76.3,46l0.5-1l-0.5-1.1c-2.6-5.9-6.8-11-12.1-14.6l5.4-5.4c1-1,1-2.6,0-3.5s-2.6-1-3.5,0l-6.4,6.4c-3.9-1.7-8-2.6-12.2-2.9
	v-7.8c0-1.4-1.1-2.5-2.5-2.5s-2.5,1.1-2.5,2.5v7.8c-4.2,0.2-8.3,1.2-12.2,2.9l-6.4-6.4c-1-1-2.6-1-3.5,0s-1,2.6,0,3.5l5.4,5.4
	C20.5,33,16.3,38,13.7,43.9L13.2,45l0.5,1.1c2.6,5.9,6.8,11,12.1,14.7l-5.5,5.5c-1,1-1,2.6,0,3.5c1,1,2.6,1,3.5,0l6.5-6.5
	c3.8,1.7,7.9,2.6,12.1,2.8v8c0,1.4,1.1,2.5,2.5,2.5s2.5-1.1,2.5-2.5v-8c4.2-0.2,8.3-1.2,12.1-2.8l6.5,6.5c1,1,2.6,1,3.5,0
	s1-2.6,0-3.5L64,60.8C69.5,57,73.7,51.9,76.3,46z M45,61c-11.9,0-21-5.6-26.3-16.1C24,34.4,33.1,28.8,45,28.8s21,5.6,26.3,16.1
	C66,55.5,56.9,61,45,61z"/>
</svg>
