<svg xmlns="http://www.w3.org/2000/svg" viewBox="0 0 72 72"><path d="M16.7 62.9c-0.2 0-0.4 0-0.6-0.1 -0.8-0.2-1.5-0.8-1.8-1.6l-9.6-29C4.4 31.4 4.6 30.6 5 30c0.5-0.6 1.2-1 2-1H65c1.4 0 2.5 1.1 2.5 2.5 0 0.3 0 0.5-0.1 0.8l-9.7 29c-0.4 1.3-1.8 2-3.2 1.6 -0.4-0.1-0.7-0.3-1-0.6l-9.7-9.7c-1-1-1-2.6-0.1-3.6 1-1 2.6-1 3.6-0.1l6.8 6.8 7.3-21.9h-51l7.3 21.8 6.7-6.8c1-1 2.6-1 3.5 0s1 2.6 0 3.5l0 0 -9.7 9.7C18 62.6 17.3 62.9 16.7 62.9z"/><path d="M55.3 24.3H16.7c-1.4 0-2.5-1.1-2.5-2.5 0-0.7 0.3-1.3 0.7-1.8L34.2 0.7c1-0.9 2.5-0.9 3.5 0L57.1 20c1 1 1 2.6 0 3.5C56.6 24 56 24.3 55.3 24.3L55.3 24.3zM22.7 19.3h26.5L36 6 22.7 19.3z"/></svg>