<svg xmlns="http://www.w3.org/2000/svg" viewBox="0 0 72 72"><path d="M65 55.4H7c-1.4 0-2.5-1.1-2.5-2.5s1.1-2.5 2.5-2.5h58c1.4 0 2.5 1.1 2.5 2.5S66.3 55.4 65 55.4z"/><path d="M65 28.8h-2.8l-11.7-20c-0.7-1.2-2.2-1.6-3.4-0.9 -0.4 0.2-0.7 0.5-0.9 0.9L36 26.3 25.8 8.8c-0.7-1.2-2.2-1.6-3.4-0.9 -0.4 0.2-0.7 0.5-0.9 0.9l-11.6 20H7c-1.4 0-2.5 1.1-2.5 2.5s1.1 2.5 2.5 2.5h58c1.4 0 2.5-1.1 2.5-2.5C67.5 30 66.3 28.8 65 28.8L65 28.8zM48.4 15.1l8 13.7h-16L48.4 15.1zM23.7 15.1l8 13.7h-16L23.7 15.1z"/><circle cx="55.3" cy="42.1" r="3.5"/><circle cx="16.7" cy="42.1" r="3.5"/></svg>