<svg xmlns="http://www.w3.org/2000/svg" viewBox="0 0 62.92 48.2"><title>13</title><g id="Layer_2" data-name="Layer 2"><g id="expanded"><g id="m"><path d="M31.46,48.2H2.5A2.5,2.5,0,0,1,.32,44.48L14.84,18.56A2.5,2.5,0,0,1,17,17.28h0a2.49,2.49,0,0,1,2.18,1.28L32.93,43.2H60.42a2.5,2.5,0,0,1,0,5h-29Zm-24.69-5H27.21L17,24.91Z"/><path d="M45.9,30.92h0a2.5,2.5,0,0,1-2.18-1.28L30,5H2.5a2.5,2.5,0,0,1,0-5H60.42a2.51,2.51,0,0,1,2.19,3.72L48.09,29.64A2.52,2.52,0,0,1,45.9,30.92ZM35.72,5,45.91,23.29,56.16,5Z"/><circle cx="31.46" cy="24.1" r="3.5"/></g></g></g></svg>