<svg xmlns="http://www.w3.org/2000/svg" viewBox="0 0 56.48 62.93"><title>17</title><g id="Layer_2" data-name="Layer 2"><g id="expanded"><g id="q"><path d="M46.24,21.68h-36a2.5,2.5,0,0,1-1.7-4.33L26.54.67a2.5,2.5,0,0,1,3.4,0l18,16.68a2.5,2.5,0,0,1-1.7,4.33Zm-29.63-5H39.86L28.24,5.91Z"/><path d="M28.24,62.93c-15.13,0-20.5-8.17-20.5-15.16,0-6.66,5.49-13.54,17.27-18H2.5a2.5,2.5,0,0,1,0-5H54a2.5,2.5,0,0,1,.08,5c-30.32.95-41.32,11.31-41.32,18,0,4.91,4.07,10.16,15.5,10.16,12.26,0,15.5-6.42,15.5-9.82A5.27,5.27,0,0,0,41,43.48c-3.45-2.2-8.45-2.22-10.5-1.26a2.5,2.5,0,1,1-2.12-4.53c4.09-1.91,11-1.2,15.31,1.57a10.32,10.32,0,0,1,5.08,8.85C48.74,55.25,42.32,62.93,28.24,62.93Z"/><circle cx="28.24" cy="51.95" r="3.5"/></g></g></g></svg>