<svg xmlns="http://www.w3.org/2000/svg" viewBox="0 0 62.99 69.07"><path d="M58.53,47.18a16.4,16.4,0,0,0-12.28-2.11L23.84,1.36a2.5,2.5,0,0,0-4.44,0L4.91,29.21a2.5,2.5,0,1,0,4.44,2.3L21.6,8l20,39c-4.71,2.73-8.34,7.18-10.81,11H6.63l17.2-32.9a2.5,2.5,0,0,0-4.43-2.32L.28,59.29a2.53,2.53,0,0,0,.08,2.46A2.5,2.5,0,0,0,2.5,63H27.91c-.18.37-.36.71-.52,1-.26.5-.49,1-.72,1.41a2.5,2.5,0,1,0,4.41,2.34c.25-.46.5-1,.78-1.51.64-1.28,1.38-2.74,2.43-4.48,1.74-2.84,5.12-7.62,9.56-10.31,4.4,8.27,10.2,11.19,14.27,10.32,3-.64,4.87-3.21,4.87-6.71A9.35,9.35,0,0,0,58.53,47.18Zm-1.45,9.69c-1.75.37-5.37-1.71-8.46-7.13a11.33,11.33,0,0,1,7.13,1.59A4.41,4.41,0,0,1,58,55.05C58,56.13,57.68,56.74,57.08,56.87Z"/></svg>