<svg xmlns="http://www.w3.org/2000/svg" viewBox="0 0 62.92 62.9"><path d="M12.15,62.9a2.78,2.78,0,0,1-.57-.07,2.52,2.52,0,0,1-1.8-1.64l-9.65-29A2.48,2.48,0,0,1,.47,30a2.52,2.52,0,0,1,2-1H60.42a2.51,2.51,0,0,1,2.38,3.29l-9.66,29a2.5,2.5,0,0,1-4.14,1l-9.65-9.65A2.5,2.5,0,1,1,42.88,49l6.8,6.8L57,33.93H6l7.28,21.84L20,49a2.5,2.5,0,1,1,3.54,3.54l-9.66,9.65A2.47,2.47,0,0,1,12.15,62.9Z"/><path d="M50.77,24.28H12.15A2.5,2.5,0,0,1,10.39,20L29.69.7a2.59,2.59,0,0,1,3.54,0L52.54,20a2.5,2.5,0,0,1-1.77,4.27Zm-32.58-5H44.73L31.46,6Z"/></svg>